SplineFontDB: 3.2
FontName: hiContr_Lite_Light
FullName: hiContr Lite Light
FamilyName: hiContr Lite
Weight: Light
Copyright: Copyright (c) 2022, RandomMaerks (aka Bao Nguyen) (rmforbusiness@gmail.com)
UComments: "2021-12-17: Created with FontForge (http://fontforge.org)"
Version: 1.0
ItalicAngle: 0
UnderlinePosition: -100
UnderlineWidth: 50
Ascent: 800
Descent: 200
InvalidEm: 0
LayerCount: 2
Layer: 0 0 "Back" 1
Layer: 1 0 "Fore" 0
XUID: [1021 301 932173752 19662]
OS2Version: 0
OS2_WeightWidthSlopeOnly: 0
OS2_UseTypoMetrics: 1
CreationTime: 1639720902
ModificationTime: 1642688590
OS2TypoAscent: 0
OS2TypoAOffset: 1
OS2TypoDescent: 0
OS2TypoDOffset: 1
OS2TypoLinegap: 0
OS2WinAscent: 0
OS2WinAOffset: 1
OS2WinDescent: 0
OS2WinDOffset: 1
HheadAscent: 0
HheadAOffset: 1
HheadDescent: 0
HheadDOffset: 1
OS2Vendor: 'PfEd'
MarkAttachClasses: 1
DEI: 91125
Encoding: ISO8859-1
UnicodeInterp: none
NameList: AGL For New Fonts
DisplaySize: -48
AntiAlias: 1
FitToEm: 0
WinInfo: 0 38 14
BeginPrivate: 0
EndPrivate
Grid
-1000 857.399993896 m 0
 2000 857.399993896 l 1024
-1000 700 m 0
 2000 700 l 1024
  Named: "cap-height"
-1000 500 m 0
 2000 500 l 1024
  Named: "x-height"
EndSplineSet
BeginChars: 256 58

StartChar: n
Encoding: 110 110 0
Width: 419
Flags: HMW
LayerCount: 2
Fore
SplineSet
70 500 m 5
 108 500 l 5
 122.833007812 395.278320312 l 5
 139.606445312 458.639648438 170.456054688 518 237 518 c 4
 310.526717557 518 349 449.829787234 349 340 c 6
 349 0 l 5
 281 0 l 5
 281 350 l 6
 281 434.857142857 263.711864407 482 221 482 c 4
 167.754716981 482 138 423.12195122 138 340 c 6
 138 0 l 5
 70 0 l 5
 70 500 l 5
EndSplineSet
EndChar

StartChar: t
Encoding: 116 116 1
Width: 362
Flags: HMW
LayerCount: 2
Fore
SplineSet
192 650 m 5
 220 650 l 1
 220 500 l 1
 312 500 l 1
 312 462 l 1
 220 462 l 1
 220 0 l 1
 152 0 l 1
 152 462 l 1
 50 462 l 1
 50 480 l 1
 192 650 l 5
EndSplineSet
EndChar

StartChar: h
Encoding: 104 104 2
Width: 428
Flags: HMW
LayerCount: 2
Fore
SplineSet
70 700 m 1
 128 700 l 5
 128 391.935546875 l 5
 144.705652574 465.463867188 181.584033613 518 237 518 c 0
 316.435114504 518 358 449.829787234 358 340 c 2
 358 0 l 1
 290 0 l 1
 290 360 l 2
 290 438.428571429 270.118644068 482 221 482 c 0
 167.754716981 482 138 423.12195122 138 340 c 2
 138 0 l 1
 70 0 l 1
 70 700 l 1
EndSplineSet
EndChar

StartChar: u
Encoding: 117 117 3
Width: 428
Flags: HMW
LayerCount: 2
Fore
SplineSet
358 0 m 1
 320 0 l 1
 304.7109375 113.029296875 l 5
 287.661132812 45.5069295326 256.94921875 -18 191 -18 c 4
 111.564885496 -18 70 50.170212766 70 160 c 6
 70 500 l 1
 138 500 l 1
 138 150 l 6
 138 65.1428571429 157.881355932 18 207 18 c 4
 260.245283019 18 290 81.0243902439 290 170 c 6
 290 500 l 1
 358 500 l 1
 358 0 l 1
EndSplineSet
EndChar

StartChar: m
Encoding: 109 109 4
Width: 658
Flags: HMW
LayerCount: 2
Fore
SplineSet
70 500 m 1
 108 500 l 1
 122.833007812 395.278320312 l 5
 139.606445312 458.639648438 170.456054688 518 237 518 c 4
 310 518 339.834011702 467.553710938 359.66015625 414.360351562 c 5
 372.236276557 475.237304688 409.031230228 518 467 518 c 4
 546.435114504 518 588 449.829787234 588 340 c 6
 588 0 l 1
 530 0 l 1
 530 360 l 6
 530 438.428571429 507.237288136 482 451 482 c 4
 397.754716981 482 368 429.52173913 368 340 c 6
 368 0 l 1
 300 0 l 1
 300 360 l 6
 300 438.428571429 277.237288136 482 221 482 c 4
 167.754716981 482 138 423.12195122 138 340 c 6
 138 0 l 1
 70 0 l 1
 70 500 l 1
EndSplineSet
EndChar

StartChar: r
Encoding: 114 114 5
Width: 408
Flags: HMW
LayerCount: 2
Fore
SplineSet
70 500 m 1
 98 500 l 1
 122.833007812 405.278320312 l 1
 141.075647328 468.639648438 174.627404565 528 247 528 c 4
 319.870229008 528 358 456 358 340 c 1
 290 320 l 1
 290 430.571428571 267.237288136 492 211 492 c 0
 164.169811321 492 138 433.121951219 138 350 c 2
 138 0 l 1
 70 0 l 1
 70 500 l 1
EndSplineSet
EndChar

StartChar: o
Encoding: 111 111 6
Width: 414
Flags: HMW
LayerCount: 2
Fore
SplineSet
208 523 m 4
 274.079096045 523 344 461 344 335 c 2
 344 175 l 2
 344 49 274.079096045 -13 208 -13 c 4
 140.949152542 -13 70 49 70 175 c 2
 70 335 l 2
 70 461 140.949152542 523 208 523 c 4
208 487 m 4
 158.169491525 487 138 447 138 375 c 2
 138 135 l 2
 138 63 158.169491525 23 208 23 c 4
 256.406779661 23 276 63 276 135 c 2
 276 375 l 2
 276 447 256.406779661 487 208 487 c 4
EndSplineSet
EndChar

StartChar: e
Encoding: 101 101 7
Width: 414
Flags: HMW
LayerCount: 2
Fore
SplineSet
138 262.090820312 m 1
 276 281.545898438 l 5
 276 384 l 6
 276 446.161132812 256.684922723 487 207 487 c 0
 157.881355932 487 138 447 138 375 c 2
 138 262.090820312 l 1
138 239.350585938 m 1
 138 135 l 2
 138 63 157.881355932 23 207 23 c 0
 256.118644068 23 276 84.4285714286 276 195 c 5
 344 175 l 5
 344 49 273.564971751 -13 207 -13 c 0
 140.435028249 -13 70 49 70 175 c 2
 70 335 l 2
 70 461 140.435028249 523 207 523 c 0
 273.564971751 523 344 461 344 335 c 6
 344 270 l 5
 138 239.350585938 l 1
EndSplineSet
EndChar

StartChar: c
Encoding: 99 99 8
Width: 414
Flags: HMW
LayerCount: 2
Fore
SplineSet
344 335 m 1
 276 315 l 1
 276 425.571428571 256.118644068 487 207 487 c 0
 165 487 148 447 148 375 c 2
 148 135 l 2
 148 63 165 23 207 23 c 0
 256.118644068 23 276 84.4285714286 276 195 c 1
 344 175 l 1
 344 49 273.564971751 -13 207 -13 c 0
 140.435028249 -13 70 49 70 175 c 2
 70 335 l 2
 70 461 140.435028249 523 207 523 c 0
 273.564971751 523 344 461 344 335 c 1
EndSplineSet
EndChar

StartChar: l
Encoding: 108 108 9
Width: 229
Flags: HMW
LayerCount: 2
Fore
SplineSet
148 0 m 2
 97.7627118644 0 70 49 70 96 c 2
 70 650 l 1
 138 700 l 1
 138 76 l 6
 138 51.6086956522 148.888888889 43 166 43 c 6
 169 43 l 5
 169 0 l 1
 148 0 l 2
EndSplineSet
EndChar

StartChar: b
Encoding: 98 98 10
Width: 424
Flags: HMW
LayerCount: 2
Fore
SplineSet
227 528 m 0
 297.829931973 528 364 456 364 340 c 2
 364 180 l 2
 364 64 297.829931973 -8 227 -8 c 0
 175.104492188 -8 131.338867188 49.2958984375 121.666992188 123.447265625 c 1
 98 0 l 1
 70 0 l 1
 70 700 l 1
 118 700 l 1
 118 414.734375 l 1
 137.3828125 479.25390625 178.663085938 528 227 528 c 0
  Spiro
    227 528 o
    293.938 505.082 o
    344.259 440.213 o
    364 340 [
    364 180 ]
    344.259 79.7873 o
    293.938 14.9181 o
    227 -8 o
    178.82 9.56715 o
    141.712 56.4706 o
    121.667 123.447 v
    98 0 v
    70 0 v
    70 700 v
    118 700 v
    118 414.734 v
    144.1 472.725 o
    181.607 513.001 o
    0 0 z
  EndSpiro
138 320 m 2
 138 200 l 2
 138 89.4285714289 160.762711864 28 217 28 c 0
 280.355932203 28 306 75.1428571429 306 160 c 2
 306 360 l 2
 306 444.857142857 280.355932203 492 217 492 c 0
 160.762711864 492 138 430.571428571 138 320 c 2
  Spiro
    138 320 [
    138 200 ]
    145.968 106.341 o
    171.559 47.9816 o
    217 28 o
    268.193 43.3347 o
    297.023 88.1222 o
    306 160 [
    306 360 ]
    297.023 431.878 o
    268.193 476.665 o
    217 492 o
    171.559 472.018 o
    145.968 413.659 o
    0 0 z
  EndSpiro
EndSplineSet
EndChar

StartChar: d
Encoding: 100 100 11
Width: 424
Flags: HMW
LayerCount: 2
Fore
SplineSet
187 528 m 0
 121.340136054 528 60 456 60 340 c 2
 60 180 l 2
 60 64 121.340136054 -8 187 -8 c 0
 243.822311754 -8 291.742913994 49.2958984375 302.333007812 123.447265625 c 1
 326 0 l 1
 354 0 l 1
 354 700 l 1
 306 700 l 1
 306 414.734375 l 1
 284.838947821 479.25390625 239.771493334 528 187 528 c 0
286 320 m 2
 286 200 l 2
 286 89.4285714289 263.237288136 28 207 28 c 0
 150.762711864 28 128 75.1428571429 128 160 c 6
 128 360 l 6
 128 444.857142857 150.762711864 492 207 492 c 0
 263.237288136 492 286 430.571428571 286 320 c 2
EndSplineSet
EndChar

StartChar: p
Encoding: 112 112 12
Width: 424
Flags: HMW
LayerCount: 2
Fore
SplineSet
237 -28 m 0
 302.659863946 -28 364 44 364 160 c 2
 364 320 l 2
 364 436 302.659863946 508 237 508 c 0
 180.177688246 508 132.257086006 450.704101562 121.666992188 376.552734375 c 5
 98 500 l 1
 70 500 l 1
 70 -150 l 1
 118 -150 l 5
 118 85.265625 l 5
 139.161052179 20.74609375 184.228506666 -28 237 -28 c 0
138 180 m 6
 138 300 l 6
 138 410.571428571 160.762711864 472 217 472 c 0
 273.237288136 472 296 424.857142857 296 340 c 2
 296 140 l 2
 296 55.1428571429 273.237288136 8 217 8 c 0
 160.762711864 8 138 69.4285714286 138 180 c 6
EndSplineSet
EndChar

StartChar: q
Encoding: 113 113 13
Width: 424
Flags: HMW
LayerCount: 2
Fore
SplineSet
187 -28 m 0
 121.340136054 -28 60 47.829787234 60 170 c 2
 60 330 l 2
 60 439.829787234 121.340136054 508 187 508 c 0
 243.822311754 508 291.742913994 450.704101562 302.333007812 376.552734375 c 1
 326 500 l 1
 354 500 l 1
 354 -150 l 1
 306 -150 l 5
 306 85.265625 l 1
 284.838947821 20.74609375 239.771493334 -28 187 -28 c 0
286 180 m 2
 286 300 l 2
 286 410.571428571 263.237288136 472 207 472 c 0
 150.762711864 472 128 424.857142857 128 340 c 2
 128 140 l 2
 128 55.1428571429 150.762711864 8 207 8 c 0
 263.237288136 8 286 69.4285714286 286 180 c 2
EndSplineSet
EndChar

StartChar: i
Encoding: 105 105 14
Width: 198
Flags: HMW
LayerCount: 2
Fore
SplineSet
128 581 m 5
 70 581 l 5
 70 650 l 5
 128 650 l 5
 128 581 l 5
128 0 m 1
 70 0 l 1
 70 500 l 1
 128 500 l 1
 128 0 l 1
EndSplineSet
EndChar

StartChar: a
Encoding: 97 97 15
Width: 434
Flags: HMW
LayerCount: 2
Fore
SplineSet
313.243164062 111.01171875 m 1
 304.661191622 52.6780338816 269.115026511 -7.8203125 205.234375 -7.8203125 c 0
 129.126577073 -7.8203125 70 45.988326348 70 137 c 0
 70 249.209091824 182 292.649414062 306 292.649414062 c 1
 306 317 l 2
 306 421.142857142 280.355932203 479 217 479 c 4
 153.644067797 479 128 421.142857142 128 317 c 1
 70 337 l 1
 70 463.872340426 145.576271186 515 217 515 c 4
 288.423728814 515 364 460.085106383 364 337 c 2
 364 0 l 1
 330 0 l 1
 313.243164062 111.01171875 l 1
306 264.909179688 m 1
 176.271186441 264.909179688 128 190.299787385 128 138.454101562 c 0
 128 101.861374656 152.77934653 35 217 35 c 0
 280.355932203 35 306 92.8571428568 306 197 c 2
 306 264.909179688 l 1
EndSplineSet
EndChar

StartChar: f
Encoding: 102 102 17
Width: 362
Flags: HMW
LayerCount: 2
Fore
SplineSet
255.576171875 673.400390625 m 4
 210.741806162 673.400390625 200 588.547245263 200 500 c 1
 312 500 l 5
 312 462 l 5
 200 462 l 1
 200 0 l 1
 132 0 l 1
 132 462 l 1
 50 462 l 1
 50 500 l 1
 132 500 l 1
 132 659.291992188 183.530587924 720 239 720 c 4
 267 720 281.365234375 713.916992188 295 708 c 5
 295 667 l 5
 295 667 277.080078125 673.400390625 255.576171875 673.400390625 c 4
EndSplineSet
EndChar

StartChar: g
Encoding: 103 103 18
Width: 424
Flags: HMW
LayerCount: 2
Fore
SplineSet
286 228 m 6
 286 300 l 6
 286 410.571428572 263.237288136 472 207 472 c 0
 150.762711864 472 128 428.428571429 128 350 c 2
 128 178 l 2
 128 99.5714285714 150.762711864 56 207 56 c 0
 263.237288136 56 286 117.428571428 286 228 c 6
187 20 m 0
 121.340136054 20 60 92 60 208 c 2
 60 320 l 2
 60 436 121.340136054 508 187 508 c 0
 254.771681777 508 291.742913994 460.704101562 302.333007812 376.552734375 c 5
 336 500 l 1
 354 500 l 1
 354 -22 l 2
 354 -154 278.423728814 -200 207 -200 c 0
 140.435028249 -200 70 -154 70 -22 c 1
 138 -2 l 1
 138 -116.352941176 157.881355932 -164 207 -164 c 0
 263.237288136 -164 286 -134 286 -62 c 6
 286 103.265625 l 5
 271.539325843 47 240.768028002 20 187 20 c 0
EndSplineSet
EndChar

StartChar: j
Encoding: 106 106 19
Width: 198
Flags: HMW
LayerCount: 2
Fore
SplineSet
128 581 m 1
 70 581 l 1
 70 650 l 1
 128 650 l 1
 128 581 l 1
70 -40 m 2
 70 500 l 1
 128 500 l 1
 128 20 l 2
 128 -139.291992188 71.6534692797 -200 11 -200 c 4
 -17 -200 -31.365234375 -193.916992188 -45 -188 c 5
 -45 -157 l 5
 -45 -157 -27.080078125 -163.400390625 -5.576171875 -163.400390625 c 4
 55.392578125 -163.400390625 70 -103.014648438 70 -40 c 2
EndSplineSet
EndChar

StartChar: k
Encoding: 107 107 20
Width: 412
Flags: HMW
LayerCount: 2
Fore
SplineSet
138 0 m 1
 70 0 l 1
 70 700 l 1
 128 700 l 1
 128 220.895507812 l 1
 329 500 l 1
 362 500 l 1
 210.627929688 278.509765625 l 5
 362 0 l 1
 294 0 l 1
 167 234.387695312 l 1
 138 192.387695312 l 1
 138 0 l 1
EndSplineSet
EndChar

StartChar: v
Encoding: 118 118 21
Width: 388
Flags: HMW
LayerCount: 2
Fore
SplineSet
224 30 m 1
 308 500 l 5
 338 500 l 5
 248 0 l 1
 170 0 l 1
 50 500 l 1
 118 500 l 1
 224 30 l 1
EndSplineSet
EndChar

StartChar: w
Encoding: 119 119 22
Width: 648
Flags: HMW
LayerCount: 2
Fore
SplineSet
224 30 m 1
 290 500 l 1
 368 500 l 1
 474 30 l 5
 570 500 l 1
 598 500 l 1
 498 0 l 5
 420 0 l 5
 314 457.333007812 l 1
 248 0 l 1
 170 0 l 1
 50 500 l 1
 128 500 l 1
 224 30 l 1
EndSplineSet
EndChar

StartChar: y
Encoding: 121 121 23
Width: 388
Flags: HMW
LayerCount: 2
Fore
SplineSet
228 90 m 1
 307 500 l 1
 338 500 l 1
 203 -160 l 5
 138 -160 l 5
 190 60 l 1
 170 60 l 1
 50 500 l 1
 118 500 l 1
 228 90 l 1
EndSplineSet
EndChar

StartChar: x
Encoding: 120 120 24
Width: 406
Flags: HMW
LayerCount: 2
Fore
SplineSet
356 0 m 1
 288 0 l 1
 190 212 l 1
 90 0 l 5
 50 0 l 1
 173 244.614257812 l 1
 50 500 l 1
 118 500 l 1
 214 288 l 1
 318 500 l 1
 356 500 l 1
 231 255.385742188 l 1
 356 0 l 1
EndSplineSet
EndChar

StartChar: z
Encoding: 122 122 25
Width: 408
Flags: HMW
LayerCount: 2
Fore
SplineSet
60 442 m 1
 60 500 l 1
 348 500 l 1
 348 440 l 1
 103.950195312 58 l 1
 348 58 l 1
 348 0 l 1
 60 0 l 1
 60 68 l 1
 303.91015625 442 l 1
 60 442 l 1
EndSplineSet
EndChar

StartChar: s
Encoding: 115 115 26
Width: 414
Flags: HMW
LayerCount: 2
Fore
SplineSet
128 382 m 0
 128 337.906777871 138.472819739 295.904492332 201.501953125 278 c 0
 252.890623829 254 354 244.361880384 354 132 c 4
 354 36 278.423728814 -16 207 -16 c 0
 135.576271186 -16 60 46 60 172 c 1
 138 192 l 1
 138 81.4285714286 157.881355932 20 207 20 c 0
 263.237288136 20 286 86.7692307692 286 132 c 4
 286 177.589248848 266.071385583 219.752929688 224.946289062 231 c 0
 167.747832386 258.495117188 60 266.388185845 60 372 c 0
 60 468 135.576271186 520 207 520 c 0
 278.423728814 520 354 468 354 332 c 5
 276 312 l 5
 276 422.571428571 256.118644068 484 207 484 c 0
 150.762711864 484 128 440.083333333 128 382 c 0
EndSplineSet
EndChar

StartChar: H
Encoding: 72 72 27
Width: 498
Flags: HMW
LayerCount: 2
Fore
SplineSet
138 0 m 1
 70 0 l 1
 70 700 l 1
 138 700 l 1
 138 399 l 1
 360 399 l 5
 360 700 l 5
 428 700 l 1
 428 0 l 1
 360 0 l 5
 360 363 l 5
 138 363 l 1
 138 0 l 1
EndSplineSet
EndChar

StartChar: N
Encoding: 78 78 28
Width: 498
Flags: HMW
LayerCount: 2
Fore
SplineSet
138 0 m 1
 70 0 l 1
 70 700 l 1
 178 700 l 1
 360 56.6669921875 l 5
 360 700 l 5
 428 700 l 1
 428 0 l 1
 330 0 l 5
 138 666.666992188 l 1
 138 0 l 1
EndSplineSet
EndChar

StartChar: M
Encoding: 77 77 29
Width: 662
Flags: HMW
LayerCount: 2
Fore
SplineSet
331 26.36328125 m 1
 474 700 l 5
 592 700 l 1
 592 0 l 1
 524 0 l 5
 524 676.666992188 l 5
 372 0 l 1
 290 0 l 1
 138 676.666992188 l 1
 138 0 l 1
 70 0 l 1
 70 700 l 1
 188 700 l 1
 331 26.36328125 l 1
EndSplineSet
EndChar

StartChar: U
Encoding: 85 85 30
Width: 484
Flags: HMW
LayerCount: 2
Fore
SplineSet
424 190 m 2
 424 34 324.41509434 -18 242 -18 c 0
 159.58490566 -18 60 34 60 190 c 2
 60 700 l 1
 128 700 l 1
 128 700 128 340 128 160 c 0
 128 68 178.936170213 36 242 36 c 0
 305.063829787 36 356 88 356 160 c 4
 356 340 356 700 356 700 c 5
 424 700 l 1
 424 190 l 2
EndSplineSet
EndChar

StartChar: O
Encoding: 79 79 31
Width: 484
Flags: HMW
LayerCount: 2
Fore
SplineSet
242 718 m 0
 324.41509434 718 424 666 424 510 c 2
 424 190 l 2
 424 34 324.41509434 -18 242 -18 c 0
 159.58490566 -18 60 34 60 190 c 2
 60 510 l 2
 60 666 159.58490566 718 242 718 c 0
242 664 m 0
 178.936170213 664 128 632 128 540 c 6
 128 160 l 6
 128 68 178.936170213 36 242 36 c 0
 305.063829787 36 356 88 356 160 c 2
 356 540 l 2
 356 632 305.063829787 664 242 664 c 0
EndSplineSet
EndChar

StartChar: C
Encoding: 67 67 32
Width: 484
Flags: HMW
LayerCount: 2
Fore
SplineSet
424 190 m 1
 424 34 324.41509434 -18 242 -18 c 0
 159.58490566 -18 60 34 60 190 c 2
 60 510 l 2
 60 666 159.58490566 718 242 718 c 0
 324.41509434 718 424 666 424 510 c 1
 356 490 l 5
 356 619.096774194 305.063829787 664 242 664 c 0
 178.936170213 664 128 632 128 540 c 2
 128 160 l 2
 128 68 178.936170213 36 242 36 c 0
 305.063829787 36 356 108.967741935 356 210 c 5
 424 190 l 1
EndSplineSet
EndChar

StartChar: G
Encoding: 71 71 33
Width: 484
Flags: HMW
LayerCount: 2
Fore
SplineSet
266 348 m 5
 424 348 l 1
 424 190 l 2
 424 34 324.41509434 -18 242 -18 c 0
 159.58490566 -18 60 34 60 190 c 2
 60 510 l 2
 60 666 159.58490566 718 242 718 c 0
 324.41509434 718 424 666 424 510 c 1
 356 490 l 5
 356 619.096774194 305.063829787 664 242 664 c 0
 178.936170213 664 128 632 128 540 c 2
 128 160 l 2
 128 68 178.936170213 36 242 36 c 0
 305.063829787 36 356 88 356 160 c 6
 356 316 l 5
 256 316 l 5
 266 348 l 5
EndSplineSet
EndChar

StartChar: Q
Encoding: 81 81 34
Width: 484
Flags: HMW
LayerCount: 2
Fore
SplineSet
242 664 m 0
 178.936170213 664 128 632 128 540 c 2
 128 160 l 2
 128 68 178.936170213 36 242 36 c 0
 305.063829787 36 356 88 356 160 c 2
 356 540 l 2
 356 632 305.063829787 664 242 664 c 0
242 718 m 0
 324.41509434 718 424 666 424 510 c 2
 424 190 l 2
 424 45.7124512969 340.425428867 -9.60545334316 263.903647363 -17.0986236985 c 1
 242.025608416 -31.3365195499 227 -46.955394872 227 -63 c 4
 227 -90.176283275 247.86032949 -100.609375 291.916992188 -100.609375 c 0
 356.627664684 -100.609375 394 -77 394 -77 c 1
 378 -135 l 1
 378 -135 343.798764814 -147.920898438 295.936523438 -147.920898438 c 0
 239.70328791 -147.920898438 171 -134.006170481 171 -74 c 0
 171 -50.4556223736 191.814543443 -29.5892868888 218.44921875 -12.5263671875 c 1
 130 0 60 62.3744756035 60 190 c 2
 60 510 l 2
 60 666 159.58490566 718 242 718 c 0
EndSplineSet
EndChar

StartChar: S
Encoding: 83 83 35
Width: 484
Flags: HMW
LayerCount: 2
Fore
SplineSet
60 530 m 0
 60 666 159.58490566 718 242 718 c 0
 324.41509434 718 424 666 424 510 c 1
 346 490 l 1
 346 619.096774194 299.531914894 664 242 664 c 0
 178.936170212 664 128 619.692307692 128 520 c 0
 128 432.81048235 178.130469658 386.261969906 241.651367188 371 c 0
 355.302168364 335 424 305.021484375 424 170 c 0
 424 34 324.41509434 -18 242 -18 c 0
 159.58490566 -18 60 34 60 190 c 1
 138 210 l 1
 138 108.967741935 184.468085106 36 242 36 c 0
 305.063829788 36 356 80.3076923077 356 180 c 0
 356 248.37286769 316.264508759 316.914201386 246.869140625 333 c 0
 134.591584449 367.564426277 60 402.383789062 60 530 c 0
EndSplineSet
EndChar

StartChar: A
Encoding: 65 65 36
Width: 498
Flags: HMW
LayerCount: 2
Fore
SplineSet
151.51953125 172 m 1
 118 0 l 1
 50 0 l 1
 210 700 l 1
 308 700 l 1
 448 0 l 1
 380 0 l 1
 350.6796875 172 l 5
 151.51953125 172 l 1
154.98046875 203 m 1
 345.0703125 203 l 5
 254 670 l 1
 154.98046875 203 l 1
EndSplineSet
EndChar

StartChar: V
Encoding: 86 86 37
Width: 498
Flags: HMW
LayerCount: 2
Fore
SplineSet
274 20 m 1
 410 700 l 5
 448 700 l 5
 308 0 l 1
 210 0 l 1
 50 700 l 1
 118 700 l 1
 274 20 l 1
EndSplineSet
EndChar

StartChar: W
Encoding: 87 87 38
Width: 820
Flags: HMW
LayerCount: 2
Fore
SplineSet
254 30 m 5
 360 700 l 5
 439 700 l 5
 606 30 l 5
 738 700 l 5
 770 700 l 5
 632 0 l 5
 562 0 l 5
 390 671.538085938 l 5
 288 0 l 5
 210 0 l 5
 50 700 l 5
 118 700 l 5
 254 30 l 5
EndSplineSet
EndChar

StartChar: L
Encoding: 76 76 39
Width: 438
Flags: HMW
LayerCount: 2
Fore
SplineSet
138 60 m 1
 378 60 l 5
 378 0 l 5
 70 0 l 1
 70 700 l 1
 138 700 l 1
 138 60 l 1
EndSplineSet
EndChar

StartChar: D
Encoding: 68 68 40
Width: 484
Flags: HMW
LayerCount: 2
Fore
SplineSet
138 54 m 5
 242 54 l 2
 305.063829787 54 356 106 356 178 c 2
 356 522 l 2
 356 614 305.063829787 646 242 646 c 2
 138 646 l 5
 138 54 l 5
70 0 m 1
 70 700 l 1
 242 700 l 2
 324.41509434 700 424 648 424 492 c 2
 424 208 l 2
 424 52 324.41509434 0 242 0 c 2
 70 0 l 1
EndSplineSet
EndChar

StartChar: I
Encoding: 73 73 41
Width: 198
Flags: HMW
LayerCount: 2
Fore
SplineSet
128 0 m 1
 70 0 l 1
 70 700 l 1
 128 700 l 1
 128 0 l 1
EndSplineSet
EndChar

StartChar: B
Encoding: 66 66 42
Width: 484
Flags: HMW
LayerCount: 2
Fore
SplineSet
138 54 m 5
 222 54 l 6
 309.748455165 54 353.677734375 108.840076812 353.677734375 222.078125 c 0
 353.677734375 293.742458621 309.821157534 387 222 387 c 2
 138 387 l 1
 138 54 l 5
138 411 m 1
 202 411 l 2
 276.420496653 411 313.677734375 440.111780404 313.677734375 507.078125 c 0
 313.677734375 574.642114289 276.482356111 646 202 646 c 2
 138 646 l 1
 138 411 l 1
310.518554688 407.6484375 m 1
 376 387 424 336.19921875 424 244 c 2
 424 200 l 2
 424 44 324.41509434 0 242 0 c 2
 70 0 l 1
 70 700 l 1
 202 700 l 2
 318.659788531 700 377.131835938 635.813476562 377.131835938 530.719726562 c 0
 377.131835938 449 344 430 310.518554688 407.6484375 c 1
EndSplineSet
EndChar

StartChar: P
Encoding: 80 80 43
Width: 484
Flags: HMW
LayerCount: 2
Fore
SplineSet
70 700 m 1
 242 700 l 2
 324.41509434 700 424 653 424 512 c 2
 424 468 l 6
 424 336.621621622 352.175824176 300 272 300 c 2
 138 300 l 1
 138 0 l 1
 70 0 l 1
 70 700 l 1
138 334 m 1
 222 334 l 2
 309.748219869 334 353.677734375 387.295824611 353.677734375 490.078125 c 0
 353.677734375 562.317909094 309.820988076 646 222 646 c 2
 138 646 l 1
 138 334 l 1
EndSplineSet
EndChar

StartChar: R
Encoding: 82 82 44
Width: 484
Flags: HMW
LayerCount: 2
Fore
SplineSet
138 354 m 1
 242 354 l 2
 316.420496653 354 353.677734375 413.05095226 353.677734375 472.078125 c 0
 353.677734375 562.757100513 316.482356111 639 242 639 c 2
 138 639 l 1
 138 354 l 1
70 700 m 1
 242 700 l 2
 324.41509434 700 424 660.121212121 424 512 c 2
 424 498 l 2
 424 393.472604488 357 334.505859375 291.120117188 334.505859375 c 1
 424 0 l 1
 349 0 l 5
 229.526367188 320 l 5
 138 320 l 1
 138 0 l 1
 70 0 l 1
 70 700 l 1
EndSplineSet
EndChar

StartChar: T
Encoding: 84 84 45
Width: 468
Flags: HMW
LayerCount: 2
Fore
SplineSet
204 640 m 1
 60 640 l 1
 60 700 l 1
 408 700 l 1
 408 640 l 1
 262 640 l 5
 262 0 l 5
 204 0 l 1
 204 640 l 1
EndSplineSet
EndChar

StartChar: J
Encoding: 74 74 46
Width: 293
Flags: HMW
LayerCount: 2
Fore
SplineSet
155 150 m 2
 155 700 l 1
 223 700 l 1
 223 200 l 2
 223 40.7080078125 161.837526483 -20 96 -20 c 4
 68 -20 53.634765625 -13.9169921875 40 -8 c 5
 40 33 l 5
 40 33 57.919921875 26.599609375 79.423828125 26.599609375 c 4
 140.392578125 26.599609375 155 86.985351562 155 150 c 2
EndSplineSet
EndChar

StartChar: E
Encoding: 69 69 47
Width: 438
Flags: HMW
LayerCount: 2
Fore
SplineSet
138 386 m 1
 386 386 l 1
 386 340 l 1
 138 340 l 1
 138 59 l 5
 408 59 l 5
 408 0 l 1
 70 0 l 1
 70 700 l 1
 408 700 l 1
 408 640 l 1
 138 640 l 1
 138 386 l 1
EndSplineSet
EndChar

StartChar: F
Encoding: 70 70 48
Width: 438
Flags: HMW
LayerCount: 2
Fore
SplineSet
138 640 m 5
 138 386 l 1
 386 386 l 1
 386 340 l 1
 138 340 l 1
 138 0 l 1
 70 0 l 1
 70 700 l 1
 408 700 l 1
 408 640 l 5
 138 640 l 5
EndSplineSet
EndChar

StartChar: Y
Encoding: 89 89 49
Width: 498
Flags: HMW
LayerCount: 2
Fore
SplineSet
264 300 m 1
 400 700 l 5
 448 700 l 5
 289 253 l 1
 289 0 l 1
 229 0 l 1
 229 253 l 1
 50 700 l 1
 118 700 l 1
 264 300 l 1
EndSplineSet
EndChar

StartChar: K
Encoding: 75 75 50
Width: 482
Flags: HMW
LayerCount: 2
Fore
SplineSet
138 0 m 1
 70 0 l 1
 70 700 l 1
 138 700 l 1
 138 320.895507812 l 1
 384 700 l 1
 432 700 l 1
 230.627929688 364.509765625 l 1
 422 0 l 1
 338 0 l 5
 176 318.387695312 l 1
 138 272.387695312 l 1
 138 0 l 1
EndSplineSet
EndChar

StartChar: X
Encoding: 88 88 51
Width: 514
Flags: HMW
LayerCount: 2
Fore
SplineSet
464 0 m 1
 392 0 l 5
 251 297 l 1
 98 0 l 1
 50 0 l 1
 230 333.614257812 l 1
 50 700 l 1
 122 700 l 1
 269 393 l 1
 425 700 l 1
 464 700 l 1
 290 356.385742188 l 1
 464 0 l 1
EndSplineSet
EndChar

StartChar: Z
Encoding: 90 90 52
Width: 478
Flags: HMW
LayerCount: 2
Fore
SplineSet
60 642 m 1
 60 700 l 1
 418 700 l 5
 418 640 l 5
 103.950195312 58 l 1
 418 58 l 5
 418 0 l 5
 60 0 l 1
 60 68 l 1
 373.91015625 642 l 5
 60 642 l 1
EndSplineSet
EndChar

StartChar: period
Encoding: 46 46 53
Width: 198
Flags: HMW
LayerCount: 2
Fore
SplineSet
133 0 m 5
 65 0 l 5
 65 76 l 5
 133 76 l 5
 133 0 l 5
EndSplineSet
EndChar

StartChar: comma
Encoding: 44 44 54
Width: 198
Flags: HMW
LayerCount: 2
Fore
SplineSet
90 -92 m 5
 70 -80 l 5
 108.724609375 0 l 5
 65 0 l 5
 65 76 l 5
 133 76 l 5
 133 0 l 5
 90 -92 l 5
EndSplineSet
EndChar

StartChar: question
Encoding: 63 63 55
Width: 484
Flags: HMW
LayerCount: 2
Fore
SplineSet
263 0 m 1
 195 0 l 1
 195 76 l 1
 263 76 l 1
 263 0 l 1
256.348632812 297.969726562 m 1
 256.348632812 186 l 1
 197.348632812 186 l 1
 197.348632812 320 l 1
 270.538213666 320 346 375.834862385 346 499 c 0
 346 612.538461538 306.380952381 663 242 663 c 0
 177.619047619 663 138 615.516129032 138 479 c 1
 70 499 l 1
 70 655 160.257425743 707 242 707 c 0
 323.742574257 707 414 655 414 499 c 4
 414 378.994140625 336.459247696 316 256.348632812 297.969726562 c 1
EndSplineSet
EndChar

StartChar: colon
Encoding: 58 58 56
Width: 198
Flags: MW
LayerCount: 2
Fore
SplineSet
133 405 m 5
 65 405 l 5
 65 481 l 5
 133 481 l 5
 133 405 l 5
133 114 m 5
 65 114 l 5
 65 190 l 5
 133 190 l 5
 133 114 l 5
EndSplineSet
EndChar

StartChar: hyphen
Encoding: 45 45 57
Width: 347
Flags: HMW
LayerCount: 2
Fore
SplineSet
40 278 m 1
 307 278 l 1
 307 225 l 5
 40 225 l 5
 40 278 l 1
EndSplineSet
EndChar
